<mxfile host="app.diagrams.net" modified="2021-01-08T08:42:28.950Z" agent="5.0 (Windows NT 6.3; Win64; x64) AppleWebKit/537.36 (KHTML, like Gecko) Chrome/86.0.4240.193 Safari/537.36" etag="B4C8NZh9FZD_Ozoti7E5" version="14.1.8" type="github">
  <diagram id="R2lEEEUBdFMjLlhIrx00" name="Page-1">
    <mxGraphModel dx="1422" dy="2794" grid="0" gridSize="10" guides="1" tooltips="1" connect="1" arrows="1" fold="1" page="0" pageScale="1" pageWidth="850" pageHeight="1100" math="0" shadow="0" extFonts="Permanent Marker^https://fonts.googleapis.com/css?family=Permanent+Marker">
      <root>
        <mxCell id="0" />
        <mxCell id="1" parent="0" />
        <mxCell id="e_-otAbNgzu8_Yu5JfUF-1" value="用水单位基本信息表" style="whiteSpace=wrap;html=1;align=center;fontFamily=仿宋;fontSize=14;" vertex="1" parent="1">
          <mxGeometry x="317" y="-1628" width="100" height="40" as="geometry" />
        </mxCell>
        <mxCell id="e_-otAbNgzu8_Yu5JfUF-2" value="用水性质比例分配表" style="whiteSpace=wrap;html=1;align=center;fontFamily=仿宋;fontSize=14;" vertex="1" parent="1">
          <mxGeometry x="529" y="-1628" width="100" height="40" as="geometry" />
        </mxCell>
        <mxCell id="e_-otAbNgzu8_Yu5JfUF-3" value="" style="edgeStyle=entityRelationEdgeStyle;fontSize=14;html=1;endArrow=ERoneToMany;exitX=1;exitY=0.5;exitDx=0;exitDy=0;entryX=0;entryY=0.5;entryDx=0;entryDy=0;fontFamily=仿宋;" edge="1" parent="1" source="e_-otAbNgzu8_Yu5JfUF-1" target="e_-otAbNgzu8_Yu5JfUF-2">
          <mxGeometry width="100" height="100" relative="1" as="geometry">
            <mxPoint x="362" y="-1418" as="sourcePoint" />
            <mxPoint x="462" y="-1518" as="targetPoint" />
          </mxGeometry>
        </mxCell>
        <mxCell id="e_-otAbNgzu8_Yu5JfUF-4" value="水表信息表" style="whiteSpace=wrap;html=1;align=center;fontFamily=仿宋;fontSize=14;" vertex="1" parent="1">
          <mxGeometry x="317" y="-1532" width="100" height="40" as="geometry" />
        </mxCell>
        <mxCell id="e_-otAbNgzu8_Yu5JfUF-5" value="" style="fontSize=14;html=1;endArrow=ERzeroToMany;endFill=1;exitX=0.5;exitY=1;exitDx=0;exitDy=0;entryX=0.5;entryY=0;entryDx=0;entryDy=0;fontFamily=仿宋;" edge="1" parent="1" source="e_-otAbNgzu8_Yu5JfUF-1" target="e_-otAbNgzu8_Yu5JfUF-4">
          <mxGeometry width="100" height="100" relative="1" as="geometry">
            <mxPoint x="427" y="-1305" as="sourcePoint" />
            <mxPoint x="527" y="-1405" as="targetPoint" />
          </mxGeometry>
        </mxCell>
        <mxCell id="e_-otAbNgzu8_Yu5JfUF-6" value="用水单位信息更改表" style="whiteSpace=wrap;html=1;align=center;fontFamily=仿宋;fontSize=14;" vertex="1" parent="1">
          <mxGeometry x="536" y="-1534" width="100" height="40" as="geometry" />
        </mxCell>
        <mxCell id="e_-otAbNgzu8_Yu5JfUF-7" value="" style="fontSize=14;html=1;endArrow=ERoneToMany;exitX=0.75;exitY=1;exitDx=0;exitDy=0;entryX=0;entryY=0;entryDx=0;entryDy=0;fontFamily=仿宋;" edge="1" parent="1" source="e_-otAbNgzu8_Yu5JfUF-1" target="e_-otAbNgzu8_Yu5JfUF-6">
          <mxGeometry width="100" height="100" relative="1" as="geometry">
            <mxPoint x="479" y="-1319" as="sourcePoint" />
            <mxPoint x="579" y="-1419" as="targetPoint" />
          </mxGeometry>
        </mxCell>
        <mxCell id="e_-otAbNgzu8_Yu5JfUF-8" value="用水性质比例分配更改表" style="whiteSpace=wrap;html=1;align=center;fontFamily=仿宋;fontSize=14;" vertex="1" parent="1">
          <mxGeometry x="529" y="-1708" width="100" height="40" as="geometry" />
        </mxCell>
        <mxCell id="e_-otAbNgzu8_Yu5JfUF-9" value="" style="fontSize=14;html=1;endArrow=ERoneToMany;exitX=0.5;exitY=0;exitDx=0;exitDy=0;entryX=0.5;entryY=1;entryDx=0;entryDy=0;fontFamily=仿宋;" edge="1" parent="1" source="e_-otAbNgzu8_Yu5JfUF-2" target="e_-otAbNgzu8_Yu5JfUF-8">
          <mxGeometry width="100" height="100" relative="1" as="geometry">
            <mxPoint x="508" y="-1604" as="sourcePoint" />
            <mxPoint x="608" y="-1704" as="targetPoint" />
          </mxGeometry>
        </mxCell>
        <mxCell id="e_-otAbNgzu8_Yu5JfUF-10" value="供水企业基本信息表" style="whiteSpace=wrap;html=1;align=center;fontFamily=仿宋;" vertex="1" parent="1">
          <mxGeometry x="321" y="-1259" width="100" height="40" as="geometry" />
        </mxCell>
        <mxCell id="e_-otAbNgzu8_Yu5JfUF-11" value="供水企业阶梯收费信息表" style="whiteSpace=wrap;html=1;align=center;fontFamily=仿宋;" vertex="1" parent="1">
          <mxGeometry x="540" y="-1259" width="100" height="40" as="geometry" />
        </mxCell>
        <mxCell id="e_-otAbNgzu8_Yu5JfUF-12" value="供水企业抄表收费信息表" style="whiteSpace=wrap;html=1;align=center;fontFamily=仿宋;" vertex="1" parent="1">
          <mxGeometry x="321" y="-1142" width="100" height="40" as="geometry" />
        </mxCell>
        <mxCell id="e_-otAbNgzu8_Yu5JfUF-13" value="水厂信息表" style="whiteSpace=wrap;html=1;align=center;fontFamily=仿宋;" vertex="1" parent="1">
          <mxGeometry x="533" y="-1142" width="100" height="40" as="geometry" />
        </mxCell>
        <mxCell id="e_-otAbNgzu8_Yu5JfUF-14" value="计划用水核定表" style="whiteSpace=wrap;html=1;align=center;fontFamily=仿宋;fontSize=14;" vertex="1" parent="1">
          <mxGeometry x="317" y="-1465" width="100" height="40" as="geometry" />
        </mxCell>
        <mxCell id="e_-otAbNgzu8_Yu5JfUF-15" value="初始计划用水量信息表" style="whiteSpace=wrap;html=1;align=center;fontFamily=仿宋;fontSize=14;" vertex="1" parent="1">
          <mxGeometry x="536" y="-1465" width="100" height="40" as="geometry" />
        </mxCell>
        <mxCell id="e_-otAbNgzu8_Yu5JfUF-16" value="计划用水调整记录表" style="whiteSpace=wrap;html=1;align=center;fontFamily=仿宋;fontSize=14;" vertex="1" parent="1">
          <mxGeometry x="536" y="-1387" width="100" height="40" as="geometry" />
        </mxCell>
        <mxCell id="e_-otAbNgzu8_Yu5JfUF-17" value="计划用水基本系数表" style="whiteSpace=wrap;html=1;align=center;fontFamily=仿宋;fontSize=14;" vertex="1" parent="1">
          <mxGeometry x="317" y="-1713" width="100" height="40" as="geometry" />
        </mxCell>
        <mxCell id="e_-otAbNgzu8_Yu5JfUF-18" value="计划用水系数调整表" style="whiteSpace=wrap;html=1;align=center;fontFamily=仿宋;fontSize=14;" vertex="1" parent="1">
          <mxGeometry x="317" y="-1794" width="100" height="40" as="geometry" />
        </mxCell>
        <mxCell id="e_-otAbNgzu8_Yu5JfUF-19" value="实际用水信息表" style="whiteSpace=wrap;html=1;align=center;fontFamily=仿宋;fontSize=14;" vertex="1" parent="1">
          <mxGeometry x="105" y="-1628" width="100" height="40" as="geometry" />
        </mxCell>
        <mxCell id="e_-otAbNgzu8_Yu5JfUF-20" value="实际用水变化信息表" style="whiteSpace=wrap;html=1;align=center;fontFamily=仿宋;fontSize=14;" vertex="1" parent="1">
          <mxGeometry x="105" y="-1703" width="100" height="40" as="geometry" />
        </mxCell>
        <mxCell id="e_-otAbNgzu8_Yu5JfUF-22" value="超计划用水警告信息表" style="whiteSpace=wrap;html=1;align=center;fontFamily=仿宋;fontSize=14;" vertex="1" parent="1">
          <mxGeometry x="105" y="-1557" width="100" height="40" as="geometry" />
        </mxCell>
        <mxCell id="e_-otAbNgzu8_Yu5JfUF-23" value="" style="edgeStyle=entityRelationEdgeStyle;fontSize=12;html=1;endArrow=ERoneToMany;exitX=1;exitY=0.5;exitDx=0;exitDy=0;entryX=0;entryY=0.5;entryDx=0;entryDy=0;fontFamily=仿宋;" edge="1" parent="1" source="e_-otAbNgzu8_Yu5JfUF-10" target="e_-otAbNgzu8_Yu5JfUF-11">
          <mxGeometry width="100" height="100" relative="1" as="geometry">
            <mxPoint x="503" y="-1120" as="sourcePoint" />
            <mxPoint x="603" y="-1220" as="targetPoint" />
          </mxGeometry>
        </mxCell>
        <mxCell id="e_-otAbNgzu8_Yu5JfUF-24" value="" style="fontSize=12;html=1;endArrow=ERoneToMany;exitX=0.5;exitY=1;exitDx=0;exitDy=0;entryX=0.5;entryY=0;entryDx=0;entryDy=0;fontFamily=仿宋;" edge="1" parent="1" source="e_-otAbNgzu8_Yu5JfUF-10" target="e_-otAbNgzu8_Yu5JfUF-12">
          <mxGeometry width="100" height="100" relative="1" as="geometry">
            <mxPoint x="459" y="-1096" as="sourcePoint" />
            <mxPoint x="559" y="-1196" as="targetPoint" />
          </mxGeometry>
        </mxCell>
        <mxCell id="e_-otAbNgzu8_Yu5JfUF-25" value="" style="fontSize=14;html=1;endArrow=ERoneToMany;exitX=0;exitY=0.5;exitDx=0;exitDy=0;entryX=0;entryY=0.5;entryDx=0;entryDy=0;edgeStyle=orthogonalEdgeStyle;fontFamily=仿宋;" edge="1" parent="1" source="e_-otAbNgzu8_Yu5JfUF-1" target="e_-otAbNgzu8_Yu5JfUF-14">
          <mxGeometry width="100" height="100" relative="1" as="geometry">
            <mxPoint x="236" y="-1391" as="sourcePoint" />
            <mxPoint x="336" y="-1491" as="targetPoint" />
          </mxGeometry>
        </mxCell>
        <mxCell id="e_-otAbNgzu8_Yu5JfUF-26" value="" style="fontSize=14;html=1;endArrow=ERoneToMany;exitX=0.62;exitY=0.975;exitDx=0;exitDy=0;exitPerimeter=0;elbow=vertical;entryX=0;entryY=0;entryDx=0;entryDy=0;fontFamily=仿宋;" edge="1" parent="1" source="e_-otAbNgzu8_Yu5JfUF-1" target="e_-otAbNgzu8_Yu5JfUF-15">
          <mxGeometry width="100" height="100" relative="1" as="geometry">
            <mxPoint x="425" y="-1292" as="sourcePoint" />
            <mxPoint x="525" y="-1392" as="targetPoint" />
          </mxGeometry>
        </mxCell>
        <mxCell id="e_-otAbNgzu8_Yu5JfUF-27" value="" style="fontSize=14;html=1;endArrow=ERoneToMany;exitX=0.5;exitY=1;exitDx=0;exitDy=0;entryX=0.5;entryY=0;entryDx=0;entryDy=0;fontFamily=仿宋;" edge="1" parent="1" source="e_-otAbNgzu8_Yu5JfUF-15" target="e_-otAbNgzu8_Yu5JfUF-16">
          <mxGeometry width="100" height="100" relative="1" as="geometry">
            <mxPoint x="737" y="-1386" as="sourcePoint" />
            <mxPoint x="837" y="-1486" as="targetPoint" />
          </mxGeometry>
        </mxCell>
        <mxCell id="e_-otAbNgzu8_Yu5JfUF-28" value="" style="fontSize=14;html=1;endArrow=ERoneToMany;exitX=0.5;exitY=0;exitDx=0;exitDy=0;entryX=0.5;entryY=1;entryDx=0;entryDy=0;fontFamily=仿宋;" edge="1" parent="1" source="e_-otAbNgzu8_Yu5JfUF-1" target="e_-otAbNgzu8_Yu5JfUF-17">
          <mxGeometry width="100" height="100" relative="1" as="geometry">
            <mxPoint x="465" y="-1586" as="sourcePoint" />
            <mxPoint x="565" y="-1686" as="targetPoint" />
          </mxGeometry>
        </mxCell>
        <mxCell id="e_-otAbNgzu8_Yu5JfUF-29" value="" style="fontSize=14;html=1;endArrow=ERoneToMany;exitX=0.5;exitY=0;exitDx=0;exitDy=0;entryX=0.5;entryY=1;entryDx=0;entryDy=0;fontFamily=仿宋;" edge="1" parent="1" source="e_-otAbNgzu8_Yu5JfUF-17" target="e_-otAbNgzu8_Yu5JfUF-18">
          <mxGeometry width="100" height="100" relative="1" as="geometry">
            <mxPoint x="481" y="-1742" as="sourcePoint" />
            <mxPoint x="581" y="-1842" as="targetPoint" />
          </mxGeometry>
        </mxCell>
        <mxCell id="e_-otAbNgzu8_Yu5JfUF-30" value="" style="fontSize=14;html=1;endArrow=ERoneToMany;entryX=1;entryY=0.5;entryDx=0;entryDy=0;fontFamily=仿宋;" edge="1" parent="1" target="e_-otAbNgzu8_Yu5JfUF-19">
          <mxGeometry width="100" height="100" relative="1" as="geometry">
            <mxPoint x="311" y="-1608" as="sourcePoint" />
            <mxPoint x="159" y="-1530" as="targetPoint" />
          </mxGeometry>
        </mxCell>
        <mxCell id="e_-otAbNgzu8_Yu5JfUF-32" value="" style="edgeStyle=entityRelationEdgeStyle;fontSize=14;html=1;endArrow=ERmandOne;startArrow=ERmandOne;entryX=0;entryY=0.25;entryDx=0;entryDy=0;" edge="1" parent="1" source="e_-otAbNgzu8_Yu5JfUF-20" target="e_-otAbNgzu8_Yu5JfUF-1">
          <mxGeometry width="100" height="100" relative="1" as="geometry">
            <mxPoint x="-8" y="-1537" as="sourcePoint" />
            <mxPoint x="92" y="-1637" as="targetPoint" />
          </mxGeometry>
        </mxCell>
        <mxCell id="e_-otAbNgzu8_Yu5JfUF-33" value="" style="fontSize=14;html=1;endArrow=ERmandOne;startArrow=ERmandOne;entryX=0.5;entryY=1;entryDx=0;entryDy=0;exitX=0.5;exitY=0;exitDx=0;exitDy=0;" edge="1" parent="1" source="e_-otAbNgzu8_Yu5JfUF-22" target="e_-otAbNgzu8_Yu5JfUF-19">
          <mxGeometry width="100" height="100" relative="1" as="geometry">
            <mxPoint x="-20" y="-1470" as="sourcePoint" />
            <mxPoint x="80" y="-1570" as="targetPoint" />
          </mxGeometry>
        </mxCell>
        <mxCell id="e_-otAbNgzu8_Yu5JfUF-34" value="" style="edgeStyle=orthogonalEdgeStyle;fontSize=14;html=1;endArrow=ERmandOne;startArrow=ERmandOne;" edge="1" parent="1" source="e_-otAbNgzu8_Yu5JfUF-22" target="e_-otAbNgzu8_Yu5JfUF-15">
          <mxGeometry width="100" height="100" relative="1" as="geometry">
            <mxPoint x="114" y="-1345" as="sourcePoint" />
            <mxPoint x="214" y="-1445" as="targetPoint" />
            <Array as="points">
              <mxPoint x="155" y="-1398" />
              <mxPoint x="586" y="-1398" />
            </Array>
          </mxGeometry>
        </mxCell>
      </root>
    </mxGraphModel>
  </diagram>
</mxfile>
